<svg xmlns="http://www.w3.org/2000/svg" xmlns:xlink="http://www.w3.org/1999/xlink" viewBox="0 0 971.83 916.5"><defs><style>.cls-1{fill:none;clip-rule:evenodd;}.cls-2{clip-path:url(#clip-path);}.cls-3{fill:#004cbf;}.cls-4{fill:#014cbe;}.cls-5{fill:#024cbe;}.cls-6{fill:#034cbd;}.cls-7{fill:#044cbc;}.cls-8{fill:#054cbc;}.cls-9{fill:#064cbb;}.cls-10{fill:#074cba;}.cls-11{fill:#084cba;}.cls-12{fill:#094cb9;}.cls-13{fill:#0a4cb9;}.cls-14{fill:#0b4cb8;}.cls-15{fill:#0c4bb7;}.cls-16{fill:#0d4bb7;}.cls-17{fill:#0e4bb6;}.cls-18{fill:#0f4bb5;}.cls-19{fill:#104bb5;}.cls-20{fill:#114bb4;}.cls-21{fill:#124bb3;}.cls-22{fill:#134bb3;}.cls-23{fill:#144bb2;}.cls-24{fill:#154bb1;}.cls-25{fill:#164bb1;}.cls-26{fill:#174bb0;}.cls-27{fill:#184baf;}.cls-28{fill:#194baf;}.cls-29{fill:#1a4bae;}.cls-30{fill:#1b4bae;}.cls-31{fill:#1c4bad;}.cls-32{fill:#1d4bac;}.cls-33{fill:#1e4bac;}.cls-34{fill:#1f4bab;}.cls-35{fill:#204baa;}.cls-36{fill:#214baa;}.cls-37{fill:#224ba9;}.cls-38{fill:#234ba8;}.cls-39{fill:#244aa8;}.cls-40{fill:#254aa7;}.cls-41{fill:#264aa6;}.cls-42{fill:#274aa6;}.cls-43{fill:#284aa5;}.cls-44{fill:#294aa4;}.cls-45{fill:#2a4aa4;}.cls-46{fill:#2b4aa3;}.cls-47{fill:#2c4aa3;}.cls-48{fill:#2d4aa2;}.cls-49{fill:#2e4aa1;}.cls-50{fill:#2f4aa1;}.cls-51{fill:#304aa0;}.cls-52{fill:#314a9f;}.cls-53{fill:#324a9f;}.cls-54{fill:#334a9e;}.cls-55{fill:#344a9d;}.cls-56{fill:#354a9d;}.cls-57{fill:#364a9c;}.cls-58{fill:#374a9b;}.cls-59{fill:#384a9b;}.cls-60{fill:#394a9a;}.cls-61{fill:#3a4a99;}.cls-62{fill:#3b4a99;}.cls-63{fill:#3d4998;}.cls-64{fill:#3e4998;}.cls-65{fill:#3f4997;}.cls-66{fill:#404996;}.cls-67{fill:#414996;}.cls-68{fill:#424995;}.cls-69{fill:#434994;}.cls-70{fill:#444994;}.cls-71{fill:#454993;}.cls-72{fill:#464992;}.cls-73{fill:#474992;}.cls-74{fill:#484991;}.cls-75{fill:#494990;}.cls-76{fill:#4a4990;}.cls-77{fill:#4b498f;}.cls-78{fill:#4c498e;}.cls-79{fill:#4d498e;}.cls-80{fill:#4e498d;}.cls-81{fill:#4f498d;}.cls-82{fill:#50498c;}.cls-83{fill:#51498b;}.cls-84{fill:#52498b;}.cls-85{fill:#53498a;}.cls-86{fill:#544989;}.cls-87{fill:#554889;}.cls-88{fill:#564888;}.cls-89{fill:#574887;}.cls-90{fill:#584887;}.cls-91{fill:#594886;}.cls-92{fill:#5a4885;}.cls-93{fill:#5b4885;}.cls-94{fill:#5c4884;}.cls-95{fill:#5d4883;}.cls-96{fill:#5e4883;}.cls-97{fill:#5f4882;}.cls-98{fill:#604882;}.cls-99{fill:#614881;}.cls-100{fill:#624880;}.cls-101{fill:#634880;}.cls-102{fill:#64487f;}.cls-103{fill:#65487e;}.cls-104{fill:#66487e;}.cls-105{fill:#67487d;}.cls-106{fill:#68487c;}.cls-107{fill:#69487c;}.cls-108{fill:#6a487b;}.cls-109{fill:#6b487a;}.cls-110{fill:#6c487a;}.cls-111{fill:#6d4779;}.cls-112{fill:#6e4778;}.cls-113{fill:#6f4778;}.cls-114{fill:#704777;}.cls-115{fill:#714777;}.cls-116{fill:#724776;}.cls-117{fill:#734775;}.cls-118{fill:#744775;}.cls-119{fill:#754774;}.cls-120{fill:#764773;}.cls-121{fill:#774773;}.cls-122{fill:#784772;}.cls-123{fill:#794771;}.cls-124{fill:#7a4771;}.cls-125{fill:#7b4770;}.cls-126{fill:#7c476f;}.cls-127{fill:#7d476f;}.cls-128{fill:#7e476e;}.cls-129{fill:#7f476d;}.cls-130{fill:#80476d;}.cls-131{fill:#81476c;}.cls-132{fill:#82476c;}.cls-133{fill:#83466b;}.cls-134{fill:#84466a;}.cls-135{fill:#85466a;}.cls-136{fill:#864669;}.cls-137{fill:#874668;}.cls-138{fill:#884668;}.cls-139{fill:#894667;}.cls-140{fill:#8a4666;}.cls-141{fill:#8b4666;}.cls-142{fill:#8c4665;}.cls-143{fill:#8d4664;}.cls-144{fill:#8e4664;}.cls-145{fill:#8f4663;}.cls-146{fill:#904662;}.cls-147{fill:#914662;}.cls-148{fill:#924661;}.cls-149{fill:#934660;}.cls-150{fill:#944660;}.cls-151{fill:#95465f;}.cls-152{fill:#96465f;}.cls-153{fill:#97455e;}.cls-154{fill:#98455d;}.cls-155{fill:#99455d;}.cls-156{fill:#9a455c;}.cls-157{fill:#9b455b;}.cls-158{fill:#9c455b;}.cls-159{fill:#9d455a;}.cls-160{fill:#9e4559;}.cls-161{fill:#9f4559;}.cls-162{fill:#a04558;}.cls-163{fill:#a14557;}.cls-164{fill:#a24557;}.cls-165{fill:#a34556;}.cls-166{fill:#a44555;}.cls-167{fill:#a54555;}.cls-168{fill:#a64554;}.cls-169{fill:#a74553;}.cls-170{fill:#a84553;}.cls-171{fill:#a94552;}.cls-172{fill:#aa4552;}.cls-173{fill:#ab4451;}.cls-174{fill:#ac4450;}.cls-175{fill:#ad4450;}.cls-176{fill:#ae444f;}.cls-177{fill:#af444e;}.cls-178{fill:#b0444e;}.cls-179{fill:#b1444d;}.cls-180{fill:#b2444c;}.cls-181{fill:#b3444c;}.cls-182{fill:#b5444b;}.cls-183{fill:#b6444a;}.cls-184{fill:#b7444a;}.cls-185{fill:#b84449;}.cls-186{fill:#b94448;}.cls-187{fill:#ba4448;}.cls-188{fill:#bb4447;}.cls-189{fill:#bc4446;}.cls-190{fill:#bd4446;}.cls-191{fill:#be4445;}.cls-192{fill:#bf4445;}.cls-193{fill:#c04344;}.cls-194{fill:#c14343;}.cls-195{fill:#c24343;}.cls-196{fill:#c34342;}.cls-197{fill:#c44341;}.cls-198{fill:#c54341;}.cls-199{fill:#c64340;}.cls-200{fill:#c7433f;}.cls-201{fill:#c8433f;}.cls-202{fill:#c9433e;}.cls-203{fill:#ca433d;}.cls-204{fill:#cb433d;}.cls-205{fill:#cc433c;}.cls-206{fill:#cd433b;}.cls-207{fill:#ce433b;}.cls-208{fill:#cf433a;}.cls-209{fill:#d04339;}.cls-210{fill:#d14339;}.cls-211{fill:#d24338;}.cls-212{fill:#d34338;}.cls-213{fill:#d44237;}.cls-214{fill:#d54236;}.cls-215{fill:#d64236;}.cls-216{fill:#d74235;}.cls-217{fill:#d84234;}.cls-218{fill:#d94234;}.cls-219{fill:#da4233;}.cls-220{fill:#db4232;}.cls-221{fill:#dc4232;}.cls-222{fill:#dd4231;}.cls-223{fill:#de4230;}.cls-224{fill:#df4230;}.cls-225{fill:#e0422f;}.cls-226{fill:#e1422e;}.cls-227{fill:#e2422e;}.cls-228{fill:#e3422d;}.cls-229{fill:#e4422c;}.cls-230{fill:#e5422c;}.cls-231{fill:#e6422b;}.cls-232{fill:#e7422b;}.cls-233{fill:#e8412a;}.cls-234{fill:#e94129;}.cls-235{fill:#ea4129;}.cls-236{fill:#eb4128;}.cls-237{fill:#ec4127;}.cls-238{fill:#ed4127;}.cls-239{fill:#ee4126;}.cls-240{fill:#ef4125;}.cls-241{fill:#f04125;}.cls-242{fill:#f14124;}</style><clipPath id="clip-path" transform="translate(2.06 0)"><path class="cls-1" d="M453.64,10.48c-18.35,3.66-36.22,10-54.09,15.76-7.63,2.47-14.78,6.36-22.87,7.68-3,.5-6.24,2.33-6.12,5.86s3.92,3.21,6.32,3.75c10.12,2.27,20.28,4.41,30.47,6.34,48.54,9.18,85.91,36.31,116.36,73.67,30,36.78,50,79.1,65.53,123.66.84,2.38,2.94,5.37.15,7.41-2.55,1.86-5-.54-7.33-1.81Q544.88,232,507.68,211.08c-3.92-2.2-7.65-5-16.17-5.4,15,18.53,28.55,34.57,41.3,51.24,44.08,57.66,71.73,121.84,80.41,194.57a415.91,415.91,0,0,1-9.64,150.83c-12.75,51.6-46.7,83.24-95.76,100.23-32.69,11.33-66.68,14.82-101,16-29.58,1-59.18.65-88.78,1.8-75.86,3-143.27,28.64-204.43,72.48-28.83,20.65-55.91,43.27-79.95,69.48A269.68,269.68,0,0,0,3.31,902.8c-1.89,3.06-5.37,6.5-1.7,10.32,3.25,3.38,7.22,1.78,10.7,0,38.09-19,78.65-30.63,119.72-41,21.39-5.42,43.06-8.08,64.87-9.74,67.71-5.14,135.08,1.69,202.58,5.67C465.77,872,532,877.3,598.66,870c56.82-6.23,111.28-18.73,161.73-46.08,69.15-37.49,120-92.28,154.26-163,31-64,42.5-132.5,49.68-202.43,5.44-53.11,3.95-105.93-1.05-158.78-3.78-40-16-78.11-27.65-116.33-.54-1.81-.84-4.32-3.09-4.36-3.51-.05-4,3.25-4.5,5.74-3.71,16.87-7.25,33.78-10.86,50.67-2.52,11.81-5.07,23.61-10.25,35.44-5.37-13.28-10.62-26.62-16.14-39.85C867,173.8,834.18,122.4,787.18,81.73c-48.37-41.86-104.8-67.46-168.58-77a430.68,430.68,0,0,0-64-4.7,515.16,515.16,0,0,0-101,10.48Z"/></clipPath></defs><g id="Capa_2" data-name="Capa 2"><g id="Capa_1-2" data-name="Capa 1"><g id="Capa_1-3" data-name="Capa_1"><g class="cls-2"><rect class="cls-3" width="4.1" height="916.5"/><rect class="cls-3" x="4.1" width="4.76" height="916.5"/><rect class="cls-4" x="8.86" width="4.76" height="916.5"/><rect class="cls-5" x="13.62" width="4.76" height="916.5"/><rect class="cls-6" x="18.37" width="4.76" height="916.5"/><rect class="cls-7" x="23.13" width="4.76" height="916.5"/><rect class="cls-8" x="27.88" width="4.76" height="916.5"/><rect class="cls-9" x="32.64" width="4.76" height="916.5"/><rect class="cls-10" x="37.39" width="4.76" height="916.5"/><rect class="cls-11" x="42.15" width="4.76" height="916.5"/><rect class="cls-12" x="46.91" width="4.76" height="916.5"/><rect class="cls-13" x="51.66" width="4.76" height="916.5"/><rect class="cls-14" x="56.42" width="4.76" height="916.5"/><rect class="cls-15" x="61.17" width="4.76" height="916.5"/><rect class="cls-16" x="65.93" width="4.76" height="916.5"/><rect class="cls-17" x="70.68" width="4.76" height="916.5"/><rect class="cls-18" x="75.44" width="4.76" height="916.5"/><rect class="cls-19" x="80.2" width="4.76" height="916.5"/><rect class="cls-20" x="84.95" width="4.76" height="916.5"/><rect class="cls-21" x="89.71" width="4.76" height="916.5"/><rect class="cls-22" x="94.46" width="4.76" height="916.5"/><rect class="cls-23" x="99.22" width="4.76" height="916.5"/><rect class="cls-24" x="103.97" width="4.76" height="916.5"/><rect class="cls-25" x="108.73" width="4.76" height="916.5"/><rect class="cls-26" x="113.49" width="4.76" height="916.5"/><rect class="cls-27" x="118.24" width="4.76" height="916.5"/><rect class="cls-28" x="123" width="4.76" height="916.5"/><rect class="cls-29" x="127.75" width="4.76" height="916.5"/><rect class="cls-30" x="132.51" width="4.76" height="916.5"/><rect class="cls-31" x="137.26" width="4.76" height="916.5"/><rect class="cls-32" x="142.02" width="4.76" height="916.5"/><rect class="cls-33" x="146.78" width="4.76" height="916.5"/><rect class="cls-34" x="151.53" width="4.76" height="916.5"/><rect class="cls-35" x="156.29" width="4.76" height="916.5"/><rect class="cls-36" x="161.04" width="4.76" height="916.5"/><rect class="cls-37" x="165.8" width="4.76" height="916.5"/><rect class="cls-38" x="170.55" width="4.76" height="916.5"/><rect class="cls-39" x="175.31" width="4.76" height="916.5"/><rect class="cls-40" x="180.07" width="4.76" height="916.5"/><rect class="cls-41" x="184.82" width="4.76" height="916.5"/><rect class="cls-42" x="189.58" width="4.76" height="916.5"/><rect class="cls-43" x="194.33" width="4.76" height="916.5"/><rect class="cls-44" x="199.09" width="4.76" height="916.5"/><rect class="cls-45" x="203.84" width="4.76" height="916.5"/><rect class="cls-46" x="208.6" width="4.76" height="916.5"/><rect class="cls-47" x="213.36" width="4.76" height="916.5"/><rect class="cls-48" x="218.11" width="4.76" height="916.5"/><rect class="cls-49" x="222.87" width="4.76" height="916.5"/><rect class="cls-50" x="227.62" width="4.76" height="916.5"/><rect class="cls-51" x="232.38" width="4.76" height="916.5"/><rect class="cls-52" x="237.13" width="4.76" height="916.5"/><rect class="cls-53" x="241.89" width="4.76" height="916.5"/><rect class="cls-54" x="246.65" width="4.76" height="916.5"/><rect class="cls-55" x="251.4" width="4.76" height="916.5"/><rect class="cls-56" x="256.16" width="4.76" height="916.5"/><rect class="cls-57" x="260.91" width="4.76" height="916.5"/><rect class="cls-58" x="265.67" width="4.76" height="916.5"/><rect class="cls-59" x="270.42" width="4.76" height="916.5"/><rect class="cls-60" x="275.18" width="4.76" height="916.5"/><rect class="cls-61" x="279.94" width="4.76" height="916.5"/><rect class="cls-62" x="284.69" width="4.76" height="916.5"/><rect class="cls-63" x="289.45" width="4.76" height="916.5"/><rect class="cls-64" x="294.2" width="4.76" height="916.5"/><rect class="cls-65" x="298.96" width="4.76" height="916.5"/><rect class="cls-66" x="303.71" width="4.76" height="916.5"/><rect class="cls-67" x="308.47" width="4.76" height="916.5"/><rect class="cls-68" x="313.23" width="4.76" height="916.5"/><rect class="cls-69" x="317.98" width="4.76" height="916.5"/><rect class="cls-70" x="322.74" width="4.76" height="916.5"/><rect class="cls-71" x="327.49" width="4.76" height="916.5"/><rect class="cls-72" x="332.25" width="4.76" height="916.5"/><rect class="cls-73" x="337" width="4.76" height="916.5"/><rect class="cls-74" x="341.76" width="4.76" height="916.5"/><rect class="cls-75" x="346.52" width="4.76" height="916.5"/><rect class="cls-76" x="351.27" width="4.76" height="916.5"/><rect class="cls-77" x="356.03" width="4.76" height="916.5"/><rect class="cls-78" x="360.78" width="4.76" height="916.5"/><rect class="cls-79" x="365.54" width="4.76" height="916.5"/><rect class="cls-80" x="370.29" width="4.76" height="916.5"/><rect class="cls-81" x="375.05" width="4.76" height="916.5"/><rect class="cls-82" x="379.81" width="4.76" height="916.5"/><rect class="cls-83" x="384.56" width="4.76" height="916.5"/><rect class="cls-84" x="389.32" width="4.76" height="916.5"/><rect class="cls-85" x="394.07" width="4.76" height="916.5"/><rect class="cls-86" x="398.83" width="4.76" height="916.5"/><rect class="cls-87" x="403.58" width="4.76" height="916.5"/><rect class="cls-88" x="408.34" width="4.76" height="916.5"/><rect class="cls-89" x="413.1" width="4.76" height="916.5"/><rect class="cls-90" x="417.85" width="4.76" height="916.5"/><rect class="cls-91" x="422.61" width="4.76" height="916.5"/><rect class="cls-92" x="427.36" width="4.76" height="916.5"/><rect class="cls-93" x="432.12" width="4.76" height="916.5"/><rect class="cls-94" x="436.87" width="4.76" height="916.5"/><rect class="cls-95" x="441.63" width="4.76" height="916.5"/><rect class="cls-96" x="446.39" width="4.76" height="916.5"/><rect class="cls-97" x="451.14" width="4.76" height="916.5"/><rect class="cls-98" x="455.9" width="4.76" height="916.5"/><rect class="cls-99" x="460.65" width="4.76" height="916.5"/><rect class="cls-100" x="465.41" width="4.76" height="916.5"/><rect class="cls-101" x="470.17" width="4.76" height="916.5"/><rect class="cls-102" x="474.92" width="4.76" height="916.5"/><rect class="cls-103" x="479.68" width="4.76" height="916.5"/><rect class="cls-104" x="484.43" width="4.76" height="916.5"/><rect class="cls-105" x="489.19" width="4.76" height="916.5"/><rect class="cls-106" x="493.94" width="4.76" height="916.5"/><rect class="cls-107" x="498.7" width="4.76" height="916.5"/><rect class="cls-108" x="503.46" width="4.76" height="916.5"/><rect class="cls-109" x="508.21" width="4.76" height="916.5"/><rect class="cls-110" x="512.97" width="4.76" height="916.5"/><rect class="cls-111" x="517.72" width="4.76" height="916.5"/><rect class="cls-112" x="522.48" width="4.76" height="916.5"/><rect class="cls-113" x="527.23" width="4.76" height="916.5"/><rect class="cls-114" x="531.99" width="4.76" height="916.5"/><rect class="cls-115" x="536.75" width="4.76" height="916.5"/><rect class="cls-116" x="541.5" width="4.76" height="916.5"/><rect class="cls-117" x="546.26" width="4.76" height="916.5"/><rect class="cls-118" x="551.01" width="4.76" height="916.5"/><rect class="cls-119" x="555.77" width="4.76" height="916.5"/><rect class="cls-120" x="560.52" width="4.76" height="916.5"/><rect class="cls-121" x="565.28" width="4.76" height="916.5"/><rect class="cls-122" x="570.04" width="4.76" height="916.5"/><rect class="cls-122" x="574.79" width="3.15" height="916.5"/><rect class="cls-123" x="577.95" width="3.15" height="916.5"/><rect class="cls-124" x="581.1" width="3.15" height="916.5"/><rect class="cls-125" x="584.26" width="3.15" height="916.5"/><rect class="cls-126" x="587.41" width="3.15" height="916.5"/><rect class="cls-127" x="590.56" width="3.15" height="916.5"/><rect class="cls-128" x="593.72" width="3.15" height="916.5"/><rect class="cls-129" x="596.87" width="3.15" height="916.5"/><rect class="cls-130" x="600.03" width="3.15" height="916.5"/><rect class="cls-131" x="603.18" width="3.15" height="916.5"/><rect class="cls-132" x="606.34" width="3.15" height="916.5"/><rect class="cls-133" x="609.49" width="3.15" height="916.5"/><rect class="cls-134" x="612.65" width="3.15" height="916.5"/><rect class="cls-135" x="615.8" width="3.15" height="916.5"/><rect class="cls-136" x="618.96" width="3.15" height="916.5"/><rect class="cls-137" x="622.11" width="3.15" height="916.5"/><rect class="cls-138" x="625.27" width="3.15" height="916.5"/><rect class="cls-139" x="628.42" width="3.15" height="916.5"/><rect class="cls-140" x="631.58" width="3.15" height="916.5"/><rect class="cls-141" x="634.73" width="3.15" height="916.5"/><rect class="cls-142" x="637.88" width="3.15" height="916.5"/><rect class="cls-143" x="641.04" width="3.15" height="916.5"/><rect class="cls-144" x="644.19" width="3.15" height="916.5"/><rect class="cls-145" x="647.35" width="3.15" height="916.5"/><rect class="cls-146" x="650.5" width="3.15" height="916.5"/><rect class="cls-147" x="653.66" width="3.15" height="916.5"/><rect class="cls-148" x="656.81" width="3.15" height="916.5"/><rect class="cls-149" x="659.97" width="3.15" height="916.5"/><rect class="cls-150" x="663.12" width="3.15" height="916.5"/><rect class="cls-151" x="666.28" width="3.15" height="916.5"/><rect class="cls-152" x="669.43" width="3.15" height="916.5"/><rect class="cls-153" x="672.59" width="3.15" height="916.5"/><rect class="cls-154" x="675.74" width="3.15" height="916.5"/><rect class="cls-155" x="678.9" width="3.15" height="916.5"/><rect class="cls-156" x="682.05" width="3.15" height="916.5"/><rect class="cls-157" x="685.21" width="3.15" height="916.5"/><rect class="cls-158" x="688.36" width="3.15" height="916.5"/><rect class="cls-159" x="691.51" width="3.15" height="916.5"/><rect class="cls-160" x="694.67" width="3.15" height="916.5"/><rect class="cls-161" x="697.82" width="3.15" height="916.5"/><rect class="cls-162" x="700.98" width="3.15" height="916.5"/><rect class="cls-163" x="704.13" width="3.15" height="916.5"/><rect class="cls-164" x="707.29" width="3.15" height="916.5"/><rect class="cls-165" x="710.44" width="3.15" height="916.5"/><rect class="cls-166" x="713.6" width="3.15" height="916.5"/><rect class="cls-167" x="716.75" width="3.15" height="916.5"/><rect class="cls-168" x="719.91" width="3.15" height="916.5"/><rect class="cls-169" x="723.06" width="3.15" height="916.5"/><rect class="cls-170" x="726.22" width="3.15" height="916.5"/><rect class="cls-171" x="729.37" width="3.15" height="916.5"/><rect class="cls-172" x="732.53" width="3.15" height="916.5"/><rect class="cls-173" x="735.68" width="3.15" height="916.5"/><rect class="cls-174" x="738.83" width="3.15" height="916.5"/><rect class="cls-175" x="741.99" width="3.15" height="916.5"/><rect class="cls-176" x="745.14" width="3.15" height="916.5"/><rect class="cls-177" x="748.3" width="3.15" height="916.5"/><rect class="cls-178" x="751.45" width="3.15" height="916.5"/><rect class="cls-179" x="754.61" width="3.15" height="916.5"/><rect class="cls-180" x="757.76" width="3.15" height="916.5"/><rect class="cls-181" x="760.92" width="3.15" height="916.5"/><rect class="cls-182" x="764.07" width="3.15" height="916.5"/><rect class="cls-183" x="767.23" width="3.15" height="916.5"/><rect class="cls-184" x="770.38" width="3.15" height="916.5"/><rect class="cls-185" x="773.54" width="3.15" height="916.5"/><rect class="cls-186" x="776.69" width="3.15" height="916.5"/><rect class="cls-187" x="779.85" width="3.15" height="916.5"/><rect class="cls-188" x="783" width="3.15" height="916.5"/><rect class="cls-189" x="786.16" width="3.15" height="916.5"/><rect class="cls-190" x="789.31" width="3.15" height="916.5"/><rect class="cls-191" x="792.46" width="3.15" height="916.5"/><rect class="cls-192" x="795.62" width="3.15" height="916.5"/><rect class="cls-193" x="798.77" width="3.15" height="916.5"/><rect class="cls-194" x="801.93" width="3.15" height="916.5"/><rect class="cls-195" x="805.08" width="3.15" height="916.5"/><rect class="cls-196" x="808.24" width="3.15" height="916.5"/><rect class="cls-197" x="811.39" width="3.15" height="916.5"/><rect class="cls-198" x="814.55" width="3.15" height="916.5"/><rect class="cls-199" x="817.7" width="3.15" height="916.5"/><rect class="cls-200" x="820.86" width="3.15" height="916.5"/><rect class="cls-201" x="824.01" width="3.15" height="916.5"/><rect class="cls-202" x="827.17" width="3.15" height="916.5"/><rect class="cls-203" x="830.32" width="3.15" height="916.5"/><rect class="cls-204" x="833.48" width="3.15" height="916.5"/><rect class="cls-205" x="836.63" width="3.15" height="916.5"/><rect class="cls-206" x="839.79" width="3.15" height="916.5"/><rect class="cls-207" x="842.94" width="3.15" height="916.5"/><rect class="cls-208" x="846.09" width="3.15" height="916.5"/><rect class="cls-209" x="849.25" width="3.15" height="916.5"/><rect class="cls-210" x="852.4" width="3.15" height="916.5"/><rect class="cls-211" x="855.56" width="3.15" height="916.5"/><rect class="cls-212" x="858.71" width="3.15" height="916.5"/><rect class="cls-213" x="861.87" width="3.15" height="916.5"/><rect class="cls-214" x="865.02" width="3.15" height="916.5"/><rect class="cls-215" x="868.18" width="3.15" height="916.5"/><rect class="cls-216" x="871.33" width="3.15" height="916.5"/><rect class="cls-217" x="874.49" width="3.15" height="916.5"/><rect class="cls-218" x="877.64" width="3.15" height="916.5"/><rect class="cls-219" x="880.8" width="3.15" height="916.5"/><rect class="cls-220" x="883.95" width="3.15" height="916.5"/><rect class="cls-221" x="887.11" width="3.15" height="916.5"/><rect class="cls-222" x="890.26" width="3.15" height="916.5"/><rect class="cls-223" x="893.41" width="3.15" height="916.5"/><rect class="cls-224" x="896.57" width="3.15" height="916.5"/><rect class="cls-225" x="899.72" width="3.15" height="916.5"/><rect class="cls-226" x="902.88" width="3.15" height="916.5"/><rect class="cls-227" x="906.03" width="3.15" height="916.5"/><rect class="cls-228" x="909.19" width="3.15" height="916.5"/><rect class="cls-229" x="912.34" width="3.15" height="916.5"/><rect class="cls-230" x="915.5" width="3.15" height="916.5"/><rect class="cls-231" x="918.65" width="3.15" height="916.5"/><rect class="cls-232" x="921.81" width="3.15" height="916.5"/><rect class="cls-233" x="924.96" width="3.15" height="916.5"/><rect class="cls-234" x="928.12" width="3.15" height="916.5"/><rect class="cls-235" x="931.27" width="3.15" height="916.5"/><rect class="cls-236" x="934.43" width="3.15" height="916.5"/><rect class="cls-237" x="937.58" width="3.15" height="916.5"/><rect class="cls-238" x="940.74" width="3.15" height="916.5"/><rect class="cls-239" x="943.89" width="3.15" height="916.5"/><rect class="cls-240" x="947.04" width="3.15" height="916.5"/><rect class="cls-241" x="950.2" width="3.15" height="916.5"/><rect class="cls-242" x="953.35" width="3.15" height="916.5"/><rect class="cls-242" x="956.51" width="11.34" height="916.5"/><rect class="cls-242" x="967.85" width="3.98" height="916.5"/></g></g></g></g></svg>